<?xml version="1.0" encoding="utf-8"?>
<!-- Generator: Adobe Illustrator 18.0.0, SVG Export Plug-In . SVG Version: 6.00 Build 0)  -->
<!DOCTYPE svg PUBLIC "-//W3C//DTD SVG 1.0//EN" "http://www.w3.org/TR/2001/REC-SVG-20010904/DTD/svg10.dtd">
<svg version="1.0" id="Layer_1" xmlns="http://www.w3.org/2000/svg" xmlns:xlink="http://www.w3.org/1999/xlink" x="0px" y="0px"
	 viewBox="0 0 318 180" style="enable-background:new 0 0 318 180;" xml:space="preserve">
<rect x="-11.71" y="-10.97" style="fill:#301893;" width="338.67" height="202.67"/>
<g>
	<path style="fill:#FFFFFF;" d="M160.62,80.66c4.87,0.33,9.58,1.46,14.06,3.38l19.08-37.44l2.05-4.02
		c-11.1-5.22-22.91-8.06-35.19-8.45V80.66z"/>
	<path style="fill:#FFFFFF;" d="M154.62,80.66V34.11c-12.28,0.4-24.09,3.23-35.19,8.45l21.13,41.47
		C145.04,82.11,149.75,80.98,154.62,80.66z"/>
	<path style="fill:#FFFFFF;" d="M115.35,134.7c-0.86-3.45-1.29-6.99-1.29-10.58c0-1.27,0.06-2.56,0.17-3.83l-43.41-6.88L68.25,113
		c-0.46,3.7-0.69,7.42-0.69,11.12c0,8.5,1.18,16.89,3.5,24.97L115.35,134.7z"/>
	<path style="fill:#FFFFFF;" d="M188.16,93.08c1,0.98,1.95,2,2.85,3.07l37.65-27.35c-7.47-9.58-16.9-17.63-27.51-23.5l-21.13,41.47
		c0.78,0.47,1.54,0.97,2.29,1.49l23.16-17.64L188.16,93.08z"/>
	<path style="fill:#FFFFFF;" d="M120.7,101l-3.23-2.35l-34.42-25c-6.83,10.08-11.58,21.53-13.87,33.42l45.98,7.28
		C116.25,109.65,118.13,105.11,120.7,101z"/>
	<path style="fill:#FFFFFF;" d="M135.22,86.76l-21.13-41.47c-10.61,5.88-20.03,13.93-27.51,23.5l37.65,27.35
		C127.34,92.44,131.07,89.26,135.22,86.76z"/>
	<path style="fill:#FFFFFF;" d="M246.99,113l-7.08,1.12l-38.89,6.16c0.11,1.28,0.17,2.56,0.17,3.83c0,3.59-0.43,7.14-1.29,10.58
		l44.28,14.39c2.33-8.08,3.5-16.46,3.5-24.97C247.67,120.43,247.44,116.7,246.99,113z"/>
	<path style="fill:#301893;" d="M252.9,112.06l0.06-0.01l-0.46-2.96l-0.47-2.97l-0.05,0.01c-2.44-12.83-7.56-25.17-14.94-36.01
		l0.04-0.03l-1.77-2.43l-1.76-2.42l-0.04,0.03c-8.03-10.34-18.19-19.01-29.64-25.32l0.02-0.04l-2.67-1.36l-2.67-1.37l-0.02,0.04
		c-11.95-5.65-24.68-8.71-37.91-9.11v-0.05h-3h-3v0.05c-13.24,0.4-25.96,3.46-37.91,9.11l-0.02-0.04l-2.67,1.37l-2.67,1.36
		l0.02,0.04c-11.45,6.31-21.61,14.99-29.64,25.32l-0.04-0.03l-1.76,2.42l-1.77,2.43l0.04,0.03c-7.38,10.84-12.5,23.18-14.94,36.01
		l-0.05-0.01l-0.46,2.94c0,0.01,0,0.02-0.01,0.03l-0.46,2.96l0.06,0.01c-0.5,4.01-0.77,8.05-0.77,12.05
		c0,10.14,1.57,20.13,4.68,29.69l0.93,2.85l55.64-18.08l-0.93-2.85c-1.21-3.74-1.83-7.64-1.83-11.61c0-1.95,0.15-3.92,0.46-5.86
		l0-0.02c0.91-5.81,3.24-11.41,6.72-16.19l0.01-0.01c3.47-4.77,8.08-8.7,13.33-11.38c5.32-2.72,11.06-4.1,17.05-4.1
		c5.99,0,11.73,1.38,17.05,4.1c0.88,0.45,1.73,0.94,2.57,1.46l5.07-3.86c-0.75-0.52-1.51-1.02-2.29-1.49l21.13-41.47
		c10.61,5.88,20.03,13.93,27.51,23.5l-37.65,27.35c-0.9-1.07-1.85-2.09-2.85-3.07l-3.7,4.8c1.28,1.3,2.47,2.69,3.55,4.16
		c3.48,4.78,5.8,10.38,6.72,16.19c0.31,1.94,0.46,3.92,0.46,5.88c0,3.97-0.62,7.88-1.83,11.61l-0.93,2.85l55.64,18.08l0.93-2.85
		c3.1-9.56,4.68-19.55,4.68-29.69C253.67,120.11,253.41,116.07,252.9,112.06z M200.08,114.36c-1.08-4.71-2.97-9.24-5.54-13.35
		l37.65-27.35c6.83,10.08,11.58,21.53,13.87,33.42L200.08,114.36z M199.89,134.7c0.86-3.44,1.29-6.99,1.29-10.58
		c0-1.27-0.06-2.56-0.17-3.83l38.89-6.16l7.08-1.12c0.46,3.7,0.69,7.42,0.69,11.12c0,8.5-1.18,16.89-3.5,24.97L199.89,134.7z
		 M69.18,107.07c2.29-11.9,7.04-23.35,13.87-33.42l34.42,25l3.23,2.35c-2.57,4.11-4.46,8.64-5.54,13.35L69.18,107.07z M68.25,113
		l2.56,0.41l43.41,6.88c-0.11,1.28-0.17,2.56-0.17,3.83c0,3.59,0.43,7.13,1.29,10.58l-44.28,14.39c-2.33-8.08-3.5-16.47-3.5-24.97
		C67.56,120.42,67.79,116.7,68.25,113z M124.23,96.15L86.58,68.8c7.47-9.57,16.9-17.63,27.51-23.5l21.13,41.47
		C131.07,89.26,127.34,92.44,124.23,96.15z M154.62,34.11v46.54c-4.87,0.33-9.58,1.46-14.06,3.38l-21.13-41.47
		C130.53,37.34,142.34,34.51,154.62,34.11z M193.76,46.59l-19.08,37.44c-4.48-1.92-9.19-3.05-14.06-3.38V34.11
		c12.28,0.4,24.09,3.23,35.19,8.45L193.76,46.59z"/>
	<path style="fill:#FFFFFF;" d="M194.54,101c2.57,4.11,4.46,8.64,5.54,13.35l45.98-7.28c-2.29-11.9-7.04-23.35-13.87-33.42
		L194.54,101z"/>
	<path style="fill:#27A7DF;" d="M188.16,93.08l17.32-22.47l-23.16,17.64l-5.07,3.86l-13.68,10.42c-6.35-2.55-13.89-1.27-19.05,3.87
		c-6.92,6.88-6.95,18.08-0.07,25c6.88,6.92,18.08,6.95,25,0.07c5.2-5.17,6.51-12.78,3.92-19.18l11.1-14.41L188.16,93.08z"/>
</g>
<circle style="fill:#FFFFFF;" cx="156.92" cy="118.92" r="9.92"/>
</svg>
