<?xml version="1.0" encoding="utf-8"?>
<!-- Generator: Adobe Illustrator 18.0.0, SVG Export Plug-In . SVG Version: 6.00 Build 0)  -->
<!DOCTYPE svg PUBLIC "-//W3C//DTD SVG 1.0//EN" "http://www.w3.org/TR/2001/REC-SVG-20010904/DTD/svg10.dtd">
<svg version="1.0" id="Layer_1" xmlns="http://www.w3.org/2000/svg" xmlns:xlink="http://www.w3.org/1999/xlink" x="0px" y="0px"
	 viewBox="0 0 318 180" style="enable-background:new 0 0 318 180;" xml:space="preserve">
<rect x="-9.28" y="-10.05" style="fill:#301893;" width="338.67" height="202.67"/>
<g>
	<polygon style="fill:#FFFFFF;" points="208.88,146.58 233.88,146.58 233.88,124.64 208.88,119.64 	"/>
	<polygon style="fill:#FFFFFF;" points="177.22,146.58 202.22,146.58 202.22,77.77 177.22,72.77 	"/>
	<polygon style="fill:#FFFFFF;" points="145.55,146.58 170.55,146.58 170.55,55.52 145.55,50.52 	"/>
	<polygon style="fill:#FFFFFF;" points="113.88,146.58 138.88,146.58 138.88,104.52 113.88,99.52 	"/>
	<polygon style="fill:#FFFFFF;" points="82.22,146.58 107.22,146.58 107.22,132.52 82.22,127.52 	"/>
	<polygon style="fill:#27A7DF;" points="82.22,125.26 82.22,126.5 82.22,127.52 107.22,132.52 107.22,131.5 107.22,125.26 
		107.22,115.75 82.22,115.75 	"/>
	<polygon style="fill:#27A7DF;" points="113.88,92.35 113.88,98.5 113.88,99.52 138.88,104.52 138.88,103.5 138.88,92.35 
		138.88,87.75 113.88,87.75 	"/>
	<polygon style="fill:#27A7DF;" points="145.55,42.22 145.55,49.5 145.55,50.52 170.55,55.52 170.55,54.5 170.55,42.22 
		170.55,38.75 145.55,38.75 	"/>
	<polygon style="fill:#27A7DF;" points="177.22,64.06 177.22,64.06 177.22,72.77 202.22,77.77 202.22,76.75 202.22,64.06 202.22,61 
		177.22,61 	"/>
	<polygon style="fill:#27A7DF;" points="208.88,107.88 208.88,110.65 208.88,118.63 208.88,119.64 233.88,124.64 233.88,123.63 
		233.88,110.65 233.88,107.88 	"/>
</g>
</svg>
