<?xml version="1.0" encoding="utf-8"?>
<!-- Generator: Adobe Illustrator 18.0.0, SVG Export Plug-In . SVG Version: 6.00 Build 0)  -->
<!DOCTYPE svg PUBLIC "-//W3C//DTD SVG 1.0//EN" "http://www.w3.org/TR/2001/REC-SVG-20010904/DTD/svg10.dtd">
<svg version="1.0" id="Layer_1" xmlns="http://www.w3.org/2000/svg" xmlns:xlink="http://www.w3.org/1999/xlink" x="0px" y="0px"
	 viewBox="0 0 318 180" style="enable-background:new 0 0 318 180;" xml:space="preserve">
<rect x="-8.33" y="-10.79" style="fill:#301893;" width="338.67" height="202.67"/>
<g>
	<path style="fill:#FFFFFF;" d="M111.45,78.43l-6.66,13.79l-6.66,13.79h8.25c2.66,9.25,7.62,17.54,14.25,24.16
		c10.15,10.15,24.16,16.41,39.63,16.41s29.48-6.27,39.63-16.41c2.81-2.81,5.32-5.93,7.49-9.29h-14.28
		c-0.41,0.44-0.82,0.86-1.23,1.28c-8.1,8.1-19.27,13.1-31.62,13.1c-12.34,0-23.53-5-31.62-13.1c-4.53-4.53-8.1-10.02-10.35-16.15
		h6.49l-6.66-13.79L111.45,78.43z"/>
	<path style="fill:#FFFFFF;" d="M210.17,109.78l-6.84-13.79l-6.85-13.79h7.71c-1.71-9.01-6.09-17.05-12.32-23.27
		c-8.1-8.1-19.27-13.1-31.62-13.1c-12.34,0-23.53,5-31.62,13.1c-1.5,1.5-2.9,3.1-4.17,4.81h-13.42c2.58-4.72,5.81-9.03,9.6-12.8
		c10.14-10.15,24.16-16.42,39.63-16.42s29.48,6.27,39.63,16.42c8.29,8.29,13.98,19.14,15.79,31.28h8.17l-6.84,13.79L210.17,109.78z"
		/>
	<g>
		<path style="fill:#27A7DF;" d="M160.01,60.74c-13.32,0-24.13,10.8-24.13,24.13c0,2.32,0.31,4.6,0.95,6.83
			c1.51,5.22,4.72,9.8,8.08,13.99c4.52,5.64,9.47,10.99,14.09,16.57c0.67,0.81,1.33,0.81,2,0c4.62-5.58,9.58-10.94,14.09-16.57
			c3.36-4.2,6.57-8.77,8.08-13.99c0.64-2.23,0.95-4.51,0.95-6.83C184.13,71.54,173.32,60.74,160.01,60.74"/>
		<circle style="fill:#FFFFFF;" cx="160.11" cy="85" r="9.68"/>
	</g>
</g>
</svg>
