<?xml version="1.0" encoding="utf-8"?>
<!-- Generator: Adobe Illustrator 18.0.0, SVG Export Plug-In . SVG Version: 6.00 Build 0)  -->
<!DOCTYPE svg PUBLIC "-//W3C//DTD SVG 1.0//EN" "http://www.w3.org/TR/2001/REC-SVG-20010904/DTD/svg10.dtd">
<svg version="1.0" id="Layer_1" xmlns="http://www.w3.org/2000/svg" xmlns:xlink="http://www.w3.org/1999/xlink" x="0px" y="0px"
	 viewBox="0 0 1091.74 822.26" style="enable-background:new 0 0 1091.74 822.26;" xml:space="preserve">
<path style="fill:#FFFFFF;" d="M1008.65,529.25c-0.02,0.01-0.04,0.02-0.05,0.03l0.47,0.79L1008.65,529.25z"/>
<g>
	<path style="fill:#28A8E0;" d="M156.48,563.88l-25.51-10.9l10.75-25.18l0.6,0.41c5.85,4,13.09,14.67,15.93,21.75
		c0.19,0.46,0.36,0.93,0.53,1.41l1.38,3.89l7.09-16.6l-0.22-0.6c-1.74-4.7-7.06-11.66-9.54-14.23c-4.64-4.81-10.15-8.6-16.37-11.26
		l-6.15-2.63l-21.07,49.35l37.68,16.09L156.48,563.88z"/>
	<path style="fill:#28A8E0;" d="M171.46,599.31l25.51,10.9l-10.75,25.18l-0.6-0.41c-5.85-4-13.1-14.67-15.93-21.74
		c-0.19-0.46-0.36-0.93-0.53-1.4l-1.38-3.9l-7.09,16.61l0.22,0.6c1.74,4.7,7.06,11.66,9.54,14.23c4.64,4.81,10.15,8.6,16.37,11.26
		l6.15,2.63l21.07-49.35l-37.68-16.09L171.46,599.31z"/>
	<path style="fill:#FFFFFF;" d="M178.03,533.09l-33.79,79.13l-27.41-11.7c0,0,2.24-5.78,12.83-12.3l-0.54-1.08l0.61,1.03
		c3.86-2.37,8.83-4.84,15.2-7.16l-15.71-6.71l-0.62,0.26c-5.89,2.41-11.2,5.86-15.78,10.26c-3.64,3.5-6.71,7.53-9.12,11.92
		l-0.06,0.11c-0.38,0.69-0.74,1.39-1.09,2.1c-0.36,0.73-0.7,1.47-1.02,2.22l-2.61,6.08l50.98,21.77l33.79-79.13l27.41,11.7
		c0,0-2.88,6.68-12.67,12.62l0.38,0.76l-0.43-0.73c-4.1,2.48-9.42,4.82-16.24,6.49l16.57,7.07l0.62-0.26
		c5.89-2.41,11.2-5.86,15.78-10.26c3.64-3.5,6.71-7.53,9.18-12.03c0.38-0.69,0.74-1.39,1.09-2.1c0.36-0.73,0.7-1.47,1.02-2.22
		l2.61-6.08L178.03,533.09z"/>
</g>
<g>
	<path style="fill:#FFFFFF;" d="M586.27,272.88h-98.2c-4.48,0-8.12-3.63-8.12-8.12v0c0-4.48,3.63-8.12,8.12-8.12h98.2
		c4.48,0,8.12,3.63,8.12,8.12v0C594.39,269.25,590.75,272.88,586.27,272.88z"/>
	<path style="fill:#28A8E0;" d="M598.49,178.14h-38.07v-30.46c0-3.2-2.59-5.79-5.79-5.79h-34.97c-3.2,0-5.79,2.59-5.79,5.79v30.46
		H477.2c-3.92,0-5.88,4.74-3.11,7.5l58.24,58.18c2.53,2.53,6.62,2.53,9.16,0.01c11.66-11.56-0.19,0.19,0,0
		c18.55-18.55,33.58-33.49,52.13-52.03c0.11-0.11,0.22-0.22,0.32-0.34l7.12-7.1C603.37,182.07,601.74,178.14,598.49,178.14z"/>
</g>
<g>
	<path style="fill:#FFFFFF;" d="M517.98,316.34h5.26v10.08c-2.73,2.06-6.5,3.16-10.05,3.16c-7.81,0-13.56-5.36-13.56-12.85
		c0-7.49,5.75-12.86,13.67-12.86c4.37,0,7.99,1.49,10.4,4.3l-3.69,3.41c-1.81-1.92-3.91-2.8-6.43-2.8c-4.83,0-8.13,3.23-8.13,7.95
		c0,4.65,3.3,7.95,8.06,7.95c1.56,0,3.02-0.28,4.47-1.07V316.34z"/>
	<path style="fill:#FFFFFF;" d="M549.58,324.54v4.62h-19.25V304.3h18.78v4.62h-13.07v5.4h11.54v4.47h-11.54v5.75H549.58z"/>
	<path style="fill:#FFFFFF;" d="M561.09,308.99h-7.95v-4.69h21.66v4.69h-7.95v20.17h-5.75V308.99z"/>
</g>
<g>
	<path style="fill:#FFFFFF;" d="M132.51,709.26h-11.54l-2.2,5.33h-5.89l11.08-24.86h5.68l11.11,24.86h-6.04L132.51,709.26z
		 M130.7,704.89l-3.94-9.52l-3.94,9.52H130.7z"/>
	<path style="fill:#FFFFFF;" d="M145.12,689.73h5.75v24.86h-5.75V689.73z"/>
	<path style="fill:#FFFFFF;" d="M174.37,714.59l-4.79-6.92h-0.28h-5.01v6.92h-5.75v-24.86h10.76c6.64,0,10.79,3.44,10.79,9.02
		c0,3.73-1.88,6.46-5.11,7.85l5.58,7.99H174.37z M168.98,694.42h-4.69v8.66h4.69c3.52,0,5.29-1.63,5.29-4.33
		C174.27,696.02,172.49,694.42,168.98,694.42z"/>
	<path style="fill:#FFFFFF;" d="M213.29,717.25c-1.63,1.99-3.98,3.05-6.71,3.05c-3.69,0-6.29-1.35-10.12-5.4
		c-6.82-0.85-11.61-6-11.61-12.75c0-7.39,5.75-12.86,13.6-12.86c7.81,0,13.6,5.43,13.6,12.86c0,5.82-3.59,10.44-8.88,12.14
		c1.21,1.28,2.27,1.74,3.52,1.74c1.53,0,2.88-0.6,4.05-1.85L213.29,717.25z M198.45,710.12c4.44,0,7.78-3.23,7.78-7.95
		c0-4.72-3.34-7.95-7.78-7.95c-4.44,0-7.78,3.23-7.78,7.95C190.67,706.88,194.01,710.12,198.45,710.12z"/>
</g>
<g>
	<path style="fill:#FFFFFF;" d="M148.59,323.84h-11.56l-2.21,5.34h-5.91l11.1-24.9h5.69l11.13,24.9h-6.05L148.59,323.84z
		 M146.77,319.46l-3.95-9.53l-3.95,9.53H146.77z"/>
	<path style="fill:#FFFFFF;" d="M182.8,313.31c0,5.55-4.16,9-10.81,9h-5.02v6.87h-5.76v-24.9h10.78
		C178.64,304.27,182.8,307.72,182.8,313.31z M176.97,313.31c0-2.74-1.78-4.34-5.3-4.34h-4.7v8.64h4.7
		C175.19,317.61,176.97,316.01,176.97,313.31z"/>
	<path style="fill:#FFFFFF;" d="M188.67,304.27h5.76v24.9h-5.76V304.27z"/>
</g>
<g>
	<path style="fill:#FFFFFF;" d="M479.72,712.14l1.95-4.33c2.09,1.53,5.22,2.59,8.2,2.59c3.41,0,4.79-1.14,4.79-2.66
		c0-4.65-14.45-1.46-14.45-10.69c0-4.23,3.41-7.74,10.47-7.74c3.12,0,6.32,0.75,8.63,2.2l-1.77,4.37c-2.31-1.31-4.69-1.95-6.89-1.95
		c-3.41,0-4.72,1.28-4.72,2.84c0,4.58,14.45,1.42,14.45,10.55c0,4.15-3.45,7.71-10.55,7.71
		C485.9,715.01,481.92,713.84,479.72,712.14z"/>
	<path style="fill:#FFFFFF;" d="M510.89,694.42h-7.95v-4.69h21.66v4.69h-7.95v20.17h-5.75V694.42z"/>
	<path style="fill:#FFFFFF;" d="M544.59,709.26h-11.54l-2.2,5.33h-5.89l11.08-24.86h5.68l11.11,24.86h-6.04L544.59,709.26z
		 M542.78,704.89l-3.94-9.52l-3.94,9.52H542.78z"/>
	<path style="fill:#FFFFFF;" d="M561.1,694.42h-7.95v-4.69h21.66v4.69h-7.95v20.17h-5.75V694.42z"/>
	<path style="fill:#FFFFFF;" d="M577.54,712.14l1.95-4.33c2.1,1.53,5.22,2.59,8.2,2.59c3.41,0,4.79-1.14,4.79-2.66
		c0-4.65-14.45-1.46-14.45-10.69c0-4.23,3.41-7.74,10.48-7.74c3.12,0,6.32,0.75,8.63,2.2l-1.78,4.37c-2.31-1.31-4.69-1.95-6.89-1.95
		c-3.41,0-4.72,1.28-4.72,2.84c0,4.58,14.45,1.42,14.45,10.55c0,4.15-3.44,7.71-10.55,7.71
		C583.72,715.01,579.74,713.84,577.54,712.14z"/>
</g>
<g>
	<g>
		<path style="fill:#28A8E0;" d="M485.49,572.45h-14.27c-1.09,0-1.97,0.9-1.97,1.98v76.22c0,1.09,0.88,1.97,1.97,1.97h14.27
			c1.09,0,1.97-0.88,1.97-1.97v-76.22C487.47,573.34,486.58,572.45,485.49,572.45z"/>
		<path style="fill:#28A8E0;" d="M603.12,572.45h-14.27c-1.09,0-1.96,0.9-1.96,1.98v76.22c0,1.09,0.88,1.97,1.96,1.97h14.27
			c1.1,0,1.98-0.88,1.98-1.97v-76.22C605.09,573.34,604.22,572.45,603.12,572.45z"/>
		<path style="fill:#FFFFFF;" d="M511.99,548.8h-14.27c-1.09,0-1.98,0.88-1.98,1.98v99.85c0,1.09,0.89,1.97,1.98,1.97h14.27
			c1.09,0,1.98-0.88,1.98-1.97v-99.85C513.96,549.68,513.08,548.8,511.99,548.8z"/>
		<path style="fill:#FFFFFF;" d="M572.5,548.8h-14.27c-1.09,0-1.96,0.88-1.96,1.98v99.85c0,1.09,0.88,1.97,1.96,1.97h14.27
			c1.1,0,1.98-0.88,1.98-1.97v-99.85C574.48,549.68,573.6,548.8,572.5,548.8z"/>
		<path style="fill:#28A8E0;" d="M541.67,563.2h-14.28c-1.09,0-1.97,0.89-1.97,1.97v85.46c0,1.09,0.88,1.97,1.97,1.97h14.28
			c1.1,0,1.98-0.88,1.98-1.97v-85.46C543.64,564.09,542.77,563.2,541.67,563.2z"/>
		<path style="fill:#FFFFFF;" d="M478.36,546.77c4.2,0,7.6-3.4,7.6-7.6c0-0.73-0.14-1.42-0.33-2.08l16-11.51
			c0.98,0.46,2.07,0.74,3.23,0.74c2.24,0,4.22-0.98,5.61-2.51l15.1,8.74c-0.09,0.45-0.14,0.91-0.14,1.37c0,4.2,3.41,7.6,7.6,7.6
			c4.04,0,7.32-3.17,7.55-7.15l20.36-5.95c1.38,1.9,3.6,3.15,6.13,3.15c1.68,0,3.2-0.56,4.46-1.48l17.11,11.6
			c-0.14,0.6-0.27,1.23-0.27,1.88c0,4.2,3.41,7.61,7.6,7.61s7.62-3.41,7.62-7.61c0-4.2-3.42-7.6-7.62-7.6
			c-1.68,0-3.2,0.56-4.46,1.48l-17.1-11.58c0.14-0.61,0.25-1.23,0.25-1.88c0-4.2-3.39-7.6-7.6-7.6c-4.04,0-7.32,3.17-7.56,7.15
			l-20.35,5.95c-1.38-1.9-3.61-3.15-6.13-3.15c-1.87,0-3.56,0.69-4.88,1.82l-15.71-9.11c0-0.11,0.03-0.2,0.03-0.3
			c0-4.2-3.4-7.61-7.6-7.61s-7.6,3.4-7.6,7.6c0,1.14,0.27,2.21,0.72,3.19l-15.3,11.01c-1.22-0.85-2.71-1.35-4.31-1.35
			c-4.2,0-7.6,3.41-7.6,7.6C470.76,543.37,474.16,546.77,478.36,546.77z"/>
	</g>
</g>
<circle style="fill:#FFFFFF;" cx="172.14" cy="208.13" r="41.62"/>
<g>
	<g>
		<path style="fill:#FFFFFF;" d="M852.33,240.43v13.42c0,10.51,25.41,19.03,54.58,19.03c29.17,0,54.58-8.53,54.58-19.03v-13.42
			c-13.16,9.46-38.17,12.31-54.58,12.31C890.57,252.75,865.53,249.92,852.33,240.43z"/>
		<path style="fill:#28A8E0;" d="M906.91,179.96c29.17,0,54.58-8.53,54.58-19.03c0-10.51-25.41-19.04-54.58-19.04
			c-29.17,0-54.58,8.53-54.58,19.04S877.75,179.96,906.91,179.96z"/>
		<path style="fill:#FFFFFF;" d="M852.33,178.56v13.32c0,10.51,25.41,19.03,54.58,19.03c29.17,0,54.58-8.53,54.58-19.03v-13.32
			c-13.2,9.49-38.23,12.31-54.58,12.31C890.51,190.88,865.5,188.02,852.33,178.56z"/>
		<path style="fill:#28A8E0;" d="M852.33,209.51v13.28c0,10.51,25.41,19.03,54.58,19.03c29.17,0,54.58-8.53,54.58-19.03v-13.28
			c-13.2,9.49-38.23,12.31-54.58,12.31C890.51,221.83,865.5,218.97,852.33,209.51z"/>
	</g>
	<g>
		<path style="fill:#FFFFFF;" d="M814.59,306.17h9.84c7.08,0,11.94,4.27,11.94,10.83s-4.86,10.83-11.94,10.83h-9.84V306.17z
			 M824.17,323.71c4.3,0,7.11-2.57,7.11-6.71c0-4.14-2.81-6.71-7.11-6.71h-4.58v13.42H824.17z"/>
		<path style="fill:#FFFFFF;" d="M855.63,323.18h-10.05l-1.92,4.64h-5.13l9.65-21.65h4.95l9.68,21.65h-5.26L855.63,323.18z
			 M854.05,319.38l-3.43-8.29l-3.43,8.29H854.05z"/>
		<path style="fill:#FFFFFF;" d="M870.01,310.25h-6.93v-4.08h18.87v4.08h-6.93v17.57h-5.01V310.25z"/>
		<path style="fill:#FFFFFF;" d="M899.37,323.18h-10.05l-1.92,4.64h-5.13l9.65-21.65h4.95l9.68,21.65h-5.26L899.37,323.18z
			 M897.79,319.38l-3.43-8.29l-3.43,8.29H897.79z"/>
		<path style="fill:#FFFFFF;" d="M930.21,321.91c0,3.74-2.97,5.91-8.66,5.91h-11.2v-21.65h10.58c5.41,0,8.2,2.26,8.2,5.63
			c0,2.16-1.11,3.84-2.88,4.76C928.66,317.34,930.21,319.19,930.21,321.91z M915.33,309.94v5.1h4.98c2.44,0,3.77-0.87,3.77-2.57
			c0-1.7-1.33-2.54-3.77-2.54H915.33z M925.16,321.39c0-1.83-1.39-2.69-3.99-2.69h-5.84v5.35h5.84
			C923.77,324.05,925.16,323.24,925.16,321.39z"/>
		<path style="fill:#FFFFFF;" d="M949.82,323.18h-10.05l-1.92,4.64h-5.13l9.65-21.65h4.95l9.68,21.65h-5.26L949.82,323.18z
			 M948.24,319.38l-3.43-8.29l-3.43,8.29H948.24z"/>
		<path style="fill:#FFFFFF;" d="M959.09,325.69l1.7-3.77c1.83,1.33,4.55,2.26,7.15,2.26c2.97,0,4.18-0.99,4.18-2.32
			c0-4.05-12.59-1.27-12.59-9.31c0-3.68,2.97-6.74,9.12-6.74c2.72,0,5.51,0.65,7.52,1.92l-1.55,3.8c-2.01-1.14-4.08-1.7-6-1.7
			c-2.97,0-4.11,1.11-4.11,2.47c0,3.99,12.59,1.24,12.59,9.19c0,3.62-3,6.71-9.19,6.71C964.48,328.19,961.01,327.17,959.09,325.69z"
			/>
		<path style="fill:#FFFFFF;" d="M998.84,323.8v4.02h-16.76v-21.65h16.36v4.02h-11.38v4.7h10.05v3.9h-10.05v5.01H998.84z"/>
	</g>
	<g>
		<path style="fill:#FFFFFF;" d="M853.21,709.26h-11.54l-2.2,5.33h-5.89l11.08-24.86h5.68l11.11,24.86h-6.04L853.21,709.26z
			 M851.39,704.89l-3.94-9.52l-3.94,9.52H851.39z"/>
		<path style="fill:#FFFFFF;" d="M865.81,689.73h5.75v20.17h12.46v4.69h-18.22V689.73z"/>
		<path style="fill:#FFFFFF;" d="M908.28,709.97v4.62h-19.25v-24.86h18.78v4.62h-13.07v5.4h11.54v4.47h-11.54v5.75H908.28z"/>
		<path style="fill:#FFFFFF;" d="M930.47,714.59l-4.79-6.92h-0.28h-5.01v6.92h-5.75v-24.86h10.76c6.64,0,10.79,3.44,10.79,9.02
			c0,3.73-1.88,6.46-5.11,7.85l5.58,7.99H930.47z M925.07,694.42h-4.69v8.66h4.69c3.52,0,5.29-1.63,5.29-4.33
			C930.36,696.02,928.59,694.42,925.07,694.42z"/>
		<path style="fill:#FFFFFF;" d="M947.3,694.42h-7.95v-4.69H961v4.69h-7.95v20.17h-5.75V694.42z"/>
	</g>
	<g>
		<path style="fill:#28A8E0;" d="M899.69,522.57c7.18-0.1,13.83,0.93,20.1,3.82c6.27,2.89,10.84,7.38,12.98,14.1
			c0.23,0.73,0.8,1.38,1.33,1.98c4.88,5.52,8.69,11.62,10.63,18.82c1.43,5.29,0.22,10.33-0.93,15.44
			c-1.13,5.01-2.97,9.49-6.93,13.08c-3.05,2.76-3.26,6.76-1.16,10.23c1.35,2.24,1.57,4.48,0.45,6.91
			c-3.32,7.22-6.54,14.49-9.85,21.72c-1.3,2.85-3.51,4.56-6.67,5.07c-0.77,0.13-1.55,0.69-2.16,1.23
			c-5.18,4.67-11.08,7.52-18.21,7.29c-6.61-0.21-12.07-3.03-16.87-7.39c-0.6-0.54-1.41-1.03-2.19-1.16
			c-2.93-0.51-5.09-2.06-6.31-4.7c-3.45-7.44-6.83-14.91-10.2-22.38c-0.99-2.2-0.75-4.35,0.5-6.41c2.11-3.49,2.16-7.51-0.81-10.1
			c-5.21-4.54-6.5-10.63-7.97-16.82c-2.55-10.74,1.69-19.47,7.9-27.64c1.99-2.61,3.91-5.13,5.28-8.23
			c3.14-7.11,9.36-10.71,16.51-12.89C889.96,523.07,894.94,522.45,899.69,522.57z M880.57,555.19c0-0.01,0-0.01,0-0.02
			c-2.67,0-5.35-0.02-8.02,0c-5.35,0.06-9.39,3.86-9.59,9.16c-0.12,3.23-0.12,6.47,0.01,9.7c0.21,5.09,4,9.36,8.79,9.84
			c4.23,0.43,8.34-0.27,12.05-2.44c6.67-3.9,9.84-10.33,11.95-17.35c1.39-4.62-1.97-8.82-6.79-8.89
			C886.17,555.16,883.37,555.19,880.57,555.19z M919.55,555.17c0,0.01,0,0.01,0,0.02c-2.86,0-5.72-0.04-8.58,0.01
			c-4.71,0.09-8,4.3-6.71,8.81c0.69,2.43,1.67,4.81,2.8,7.07c3.48,6.91,8.52,11.75,16.67,12.77c7.47,0.93,13-2.99,13.28-9.92
			c0.13-3.17,0.15-6.35,0.03-9.51c-0.2-5.47-4.16-9.21-9.66-9.25C924.77,555.15,922.16,555.17,919.55,555.17z M899.97,631.84
			c10.44,0.02,18.91-8.37,18.95-18.77c0.04-10.32-8.47-18.87-18.85-18.95c-10.31-0.08-18.89,8.47-18.9,18.84
			C881.16,623.44,889.5,631.81,899.97,631.84z"/>
		<path style="fill:#FFFFFF;" d="M850.8,652.47c-4.88-0.18-8.19-2.08-9.95-6c-3.72-8.27-7.32-16.58-10.8-24.96
			c-2.07-4.99,0.11-10.6,4.99-12.97c4.3-2.08,8.71-3.95,13.14-5.74c3.03-1.23,6.03,0.1,7.38,3.2c4.75,10.87,9.45,21.75,14.11,32.66
			c1.34,3.14,0.1,6.25-2.97,7.63c-4.19,1.88-8.41,3.69-12.67,5.43C852.85,652.2,851.52,652.31,850.8,652.47z"/>
		<path style="fill:#FFFFFF;" d="M948.92,652.47c-0.76-0.21-2.24-0.45-3.59-1.01c-3.9-1.61-7.76-3.32-11.62-5.02
			c-3.55-1.57-4.75-4.5-3.21-8.08c4.58-10.67,9.17-21.33,13.81-31.97c1.64-3.76,4.57-4.87,8.38-3.25c3.83,1.63,7.65,3.28,11.45,4.96
			c5.68,2.51,8.04,8.42,5.61,14.11c-3.34,7.82-6.74,15.62-10.11,23.42C957.74,649.99,954.46,652.31,948.92,652.47z"/>
		<path style="fill:#FFFFFF;" d="M913.38,613.03c0.01,7.42-5.96,13.41-13.38,13.44c-7.33,0.02-13.41-6.09-13.4-13.47
			c0.01-7.39,6.02-13.38,13.44-13.39C907.47,599.6,913.38,605.54,913.38,613.03z"/>
	</g>
</g>
<g>
	<g>
		<path style="fill:none;" d="M182.37,175.29c-3.39-1.04-6.89-1.56-10.39-1.56c-15.71,0-29.36,10.11-33.95,25.14
			c-5.73,18.73,4.85,38.62,23.58,44.35c3.39,1.04,6.89,1.56,10.39,1.56c15.71,0,29.36-10.1,33.95-25.14
			C211.67,200.92,201.09,181.02,182.37,175.29z"/>
	</g>
	<g>
		<path style="fill:#28A8E0;" d="M226.88,206.66c-0.08-1.79-0.26-3.57-0.52-5.34c-0.48-3.27,0.93-6.53,3.71-8.32l0.2-0.13
			c3.64-2.36,4.87-7.1,2.83-10.93l-4.3-8.08c-2.03-3.83-6.66-5.46-10.64-3.76l-0.22,0.09c-3.04,1.29-6.53,0.65-8.97-1.58
			c-1.32-1.21-2.71-2.35-4.14-3.42c-2.65-1.97-3.95-5.27-3.26-8.5l0.05-0.25c0.9-4.24-1.58-8.46-5.73-9.73l-8.78-2.68
			c-4.14-1.27-8.57,0.85-10.19,4.86l-0.1,0.24c-1.23,3.06-4.15,5.07-7.45,5.22c-1.79,0.08-3.57,0.26-5.34,0.52
			c-3.27,0.48-6.52-0.93-8.32-3.71l-0.13-0.21c-2.36-3.64-7.1-4.87-10.93-2.83l-8.08,4.3c-3.83,2.03-5.46,6.66-3.76,10.64l0.1,0.22
			c1.29,3.04,0.65,6.53-1.58,8.97c-1.21,1.32-2.35,2.7-3.42,4.14c-1.97,2.65-5.27,3.95-8.5,3.26l-0.25-0.05
			c-4.24-0.9-8.46,1.58-9.73,5.73l-2.68,8.78c-1.27,4.14,0.85,8.57,4.86,10.19l0.24,0.1c3.06,1.23,5.07,4.16,5.22,7.45
			c0.08,1.79,0.26,3.57,0.52,5.34c0.48,3.27-0.93,6.52-3.71,8.32l-0.21,0.13c-3.64,2.36-4.87,7.1-2.83,10.93l4.3,8.08
			c2.03,3.83,6.66,5.46,10.64,3.76l0.22-0.1c3.04-1.29,6.53-0.65,8.97,1.58c1.32,1.21,2.71,2.35,4.14,3.42
			c2.65,1.97,3.95,5.27,3.26,8.5l-0.05,0.25c-0.9,4.24,1.58,8.46,5.73,9.73l8.78,2.68c4.14,1.27,8.57-0.85,10.18-4.86l0.09-0.24
			c1.23-3.06,4.16-5.07,7.45-5.22c1.79-0.08,3.57-0.26,5.34-0.52c3.27-0.48,6.53,0.93,8.32,3.71l0.13,0.2
			c2.36,3.64,7.1,4.87,10.93,2.83l8.08-4.3c3.83-2.03,5.46-6.66,3.76-10.64l-0.1-0.22c-1.29-3.04-0.65-6.53,1.58-8.97
			c1.21-1.32,2.35-2.71,3.42-4.14c1.97-2.65,5.27-3.95,8.5-3.26l0.25,0.05c4.24,0.9,8.46-1.58,9.73-5.73l2.68-8.78
			c1.27-4.14-0.85-8.57-4.86-10.19l-0.23-0.09C229.05,212.88,227.04,209.96,226.88,206.66z M205.95,219.64
			c-4.6,15.04-18.24,25.14-33.95,25.14c-3.51,0-7.01-0.53-10.39-1.56c-18.73-5.73-29.31-25.62-23.58-44.35
			c4.6-15.04,18.24-25.14,33.95-25.14c3.51,0,7.01,0.53,10.39,1.56C201.09,181.02,211.67,200.92,205.95,219.64z"/>
	</g>
</g>
<g>
	<g>
		<g>
			<path style="fill:#FFFFFF;" d="M256.38,145.82c-0.14,0.13,1.91-1.66,6.01-4.43c4.08-2.77,10.16-6.54,17.89-10.26
				c7.7-3.77,17.07-7.43,27.43-10.2c10.34-2.84,21.7-4.58,33.11-5c11.41-0.45,22.87,0.47,33.42,2.43c1.32,0.24,2.63,0.45,3.93,0.72
				c1.28,0.3,2.56,0.6,3.81,0.9c2.52,0.6,4.99,1.13,7.34,1.89c2.36,0.71,4.68,1.35,6.89,2.06c2.19,0.78,4.31,1.54,6.34,2.26
				c1.01,0.37,2.02,0.69,2.98,1.09c0.95,0.4,1.88,0.79,2.79,1.17c1.82,0.76,3.54,1.48,5.16,2.16c0.4,0.17,0.8,0.34,1.19,0.5
				c0.13,0.07,0.27,0.13,0.4,0.19c0.12,0.06,0.24,0.12,0.36,0.17c0.23,0.11,0.44,0.21,0.63,0.31c0.77,0.37,1.2,0.58,1.2,0.58
				l-5,10.67c2.84-0.33,5.73-0.64,8.68-0.93c2.9-0.17,5.84-0.3,8.83-0.41c1.49-0.05,3.01-0.11,4.52-0.14l4.5,0.07
				c3.02,0.06,6.09,0.15,9.2,0.27c-1.42-2.69-2.89-5.41-4.4-8.16l-2.3-4.14c-0.8-1.35-1.64-2.67-2.47-4.01
				c-1.68-2.68-3.4-5.39-5.18-8.11c-1.85-2.61-3.75-5.24-5.71-7.9l-5,10.67c0,0-0.47-0.23-1.29-0.62c-0.2-0.1-0.43-0.21-0.68-0.33
				c-0.12-0.06-0.25-0.12-0.38-0.19c-0.14-0.07-0.28-0.14-0.42-0.2c-0.42-0.18-0.84-0.36-1.28-0.54c-1.73-0.73-3.58-1.5-5.52-2.32
				c-0.97-0.41-1.97-0.82-2.99-1.25c-1.02-0.42-2.11-0.77-3.19-1.17c-2.18-0.78-4.46-1.59-6.81-2.42c-2.38-0.76-4.88-1.46-7.42-2.22
				c-2.53-0.81-5.21-1.39-7.93-2.04c-1.36-0.32-2.74-0.64-4.13-0.97c-1.4-0.29-2.82-0.52-4.25-0.78
				c-11.44-2.12-23.91-3.13-36.34-2.64c-12.43,0.47-24.81,2.37-36.05,5.45c-11.26,3.01-21.43,6.99-29.8,11.09
				c-8.4,4.04-15.04,8.15-19.59,11.24c-4.55,3.08-7.03,5.2-7.17,5.32L256.38,145.82z"/>
		</g>
	</g>
</g>
<g>
	<g>
		<g>
			<path style="fill:#FFFFFF;" d="M639.44,550.42c-0.14,0.13,1.91-1.66,6.01-4.43c4.08-2.77,10.16-6.54,17.89-10.26
				c7.7-3.77,17.07-7.43,27.43-10.2c10.34-2.84,21.7-4.58,33.11-5c11.41-0.45,22.87,0.47,33.42,2.43c1.32,0.24,2.63,0.45,3.93,0.72
				c1.28,0.3,2.56,0.6,3.82,0.9c2.52,0.6,4.99,1.13,7.34,1.89c2.36,0.71,4.68,1.35,6.89,2.06c2.19,0.78,4.31,1.54,6.34,2.26
				c1.01,0.37,2.02,0.69,2.98,1.09c0.95,0.4,1.89,0.79,2.79,1.17c1.82,0.76,3.54,1.48,5.16,2.16c0.4,0.17,0.8,0.34,1.19,0.5
				c0.13,0.07,0.27,0.13,0.4,0.19c0.12,0.06,0.24,0.12,0.36,0.17c0.23,0.11,0.44,0.21,0.63,0.31c0.77,0.37,1.2,0.58,1.2,0.58
				l-5,10.67c2.84-0.33,5.73-0.65,8.68-0.93c2.9-0.17,5.84-0.3,8.83-0.41c1.49-0.05,3.01-0.11,4.52-0.14l4.5,0.07
				c3.02,0.06,6.09,0.15,9.2,0.27c-1.42-2.69-2.89-5.41-4.4-8.16l-2.3-4.14c-0.8-1.35-1.64-2.67-2.47-4.01
				c-1.68-2.68-3.4-5.39-5.18-8.11c-1.85-2.61-3.75-5.24-5.71-7.9l-5,10.67c0,0-0.47-0.23-1.29-0.62c-0.2-0.1-0.43-0.21-0.68-0.33
				c-0.12-0.06-0.25-0.12-0.38-0.19c-0.14-0.07-0.28-0.14-0.42-0.2c-0.42-0.18-0.84-0.36-1.28-0.54c-1.73-0.73-3.58-1.5-5.52-2.32
				c-0.97-0.41-1.97-0.82-2.99-1.25c-1.02-0.42-2.11-0.77-3.19-1.17c-2.18-0.78-4.46-1.59-6.81-2.42c-2.38-0.76-4.88-1.46-7.42-2.22
				c-2.53-0.81-5.21-1.39-7.93-2.04c-1.36-0.32-2.74-0.64-4.13-0.97c-1.4-0.29-2.82-0.52-4.25-0.78
				c-11.44-2.12-23.91-3.13-36.34-2.64c-12.43,0.47-24.81,2.37-36.05,5.45c-11.26,3.01-21.43,6.99-29.8,11.09
				c-8.4,4.04-15.04,8.15-19.59,11.24c-4.55,3.08-7.03,5.2-7.17,5.32L639.44,550.42z"/>
		</g>
	</g>
</g>
<g>
	<g>
		<g>
			<path style="fill:#FFFFFF;" d="M591.86,339.34c0.15,0.12,2.63,2.24,7.17,5.32c4.55,3.09,11.19,7.2,19.59,11.24
				c8.37,4.1,18.54,8.07,29.8,11.09c11.24,3.08,23.62,4.98,36.05,5.45c12.43,0.49,24.9-0.52,36.34-2.64
				c1.43-0.26,2.86-0.49,4.25-0.78c1.39-0.33,2.77-0.65,4.13-0.97c2.72-0.64,5.4-1.23,7.93-2.04c2.55-0.76,5.04-1.46,7.42-2.22
				c2.35-0.84,4.63-1.65,6.81-2.42c1.09-0.4,2.17-0.75,3.19-1.17c1.02-0.43,2.02-0.84,2.99-1.25c1.94-0.82,3.79-1.59,5.52-2.32
				c0.43-0.18,0.86-0.36,1.28-0.54c0.14-0.07,0.28-0.14,0.42-0.2c0.13-0.06,0.26-0.13,0.38-0.19c0.25-0.12,0.47-0.23,0.68-0.33
				c0.82-0.4,1.29-0.62,1.29-0.62l5,10.67c1.96-2.65,3.86-5.29,5.71-7.9c1.78-2.72,3.5-5.43,5.18-8.11
				c0.83-1.35,1.67-2.66,2.47-4.01l2.3-4.14c1.51-2.75,2.97-5.46,4.4-8.16c-3.11,0.12-6.17,0.2-9.2,0.27l-4.5,0.07
				c-1.51-0.02-3.03-0.08-4.52-0.13c-2.99-0.11-5.94-0.24-8.83-0.41c-2.95-0.29-5.84-0.6-8.68-0.93l5,10.67c0,0-0.44,0.21-1.2,0.58
				c-0.19,0.09-0.4,0.2-0.63,0.31c-0.12,0.06-0.24,0.11-0.36,0.17c-0.13,0.06-0.26,0.13-0.4,0.19c-0.39,0.17-0.79,0.33-1.19,0.5
				c-1.62,0.68-3.34,1.4-5.16,2.16c-0.91,0.38-1.84,0.77-2.79,1.17c-0.96,0.4-1.96,0.71-2.98,1.09c-2.03,0.72-4.15,1.48-6.34,2.26
				c-2.21,0.7-4.53,1.35-6.89,2.06c-2.35,0.76-4.83,1.29-7.34,1.89c-1.26,0.3-2.53,0.6-3.82,0.9c-1.29,0.27-2.61,0.47-3.93,0.72
				c-10.55,1.95-22.01,2.88-33.42,2.43c-11.41-0.43-22.77-2.17-33.11-5c-10.36-2.77-19.73-6.43-27.43-10.2
				c-7.73-3.72-13.81-7.49-17.89-10.26c-4.1-2.78-6.15-4.56-6.01-4.43L591.86,339.34z"/>
		</g>
	</g>
</g>
<g>
	<g>
		<g>
			<path style="fill:#FFFFFF;" d="M245.69,665.41c0.15,0.12,2.63,2.24,7.17,5.32c4.55,3.09,11.19,7.2,19.59,11.24
				c8.37,4.1,18.54,8.07,29.8,11.09c11.24,3.08,23.62,4.98,36.05,5.45c12.43,0.49,24.9-0.52,36.34-2.64
				c1.43-0.26,2.86-0.49,4.25-0.78c1.39-0.33,2.77-0.65,4.13-0.97c2.72-0.65,5.4-1.23,7.93-2.04c2.55-0.76,5.04-1.46,7.42-2.22
				c2.35-0.84,4.63-1.65,6.81-2.42c1.09-0.4,2.17-0.75,3.19-1.17c1.02-0.43,2.02-0.84,2.99-1.25c1.94-0.82,3.79-1.59,5.52-2.32
				c0.43-0.18,0.86-0.36,1.28-0.54c0.14-0.07,0.28-0.14,0.42-0.2c0.13-0.06,0.26-0.13,0.38-0.19c0.25-0.12,0.47-0.23,0.68-0.33
				c0.82-0.4,1.29-0.62,1.29-0.62l5,10.67c1.96-2.65,3.86-5.29,5.71-7.9c1.78-2.72,3.5-5.43,5.18-8.11
				c0.83-1.34,1.67-2.66,2.47-4.01l2.3-4.14c1.51-2.75,2.97-5.46,4.4-8.16c-3.11,0.12-6.17,0.2-9.2,0.27l-4.5,0.07
				c-1.51-0.02-3.03-0.08-4.52-0.13c-2.99-0.11-5.94-0.24-8.83-0.41c-2.95-0.29-5.84-0.6-8.68-0.93l5,10.67c0,0-0.44,0.21-1.2,0.58
				c-0.19,0.09-0.4,0.2-0.63,0.31c-0.12,0.06-0.24,0.11-0.36,0.17c-0.13,0.06-0.26,0.13-0.4,0.19c-0.39,0.17-0.79,0.33-1.19,0.5
				c-1.62,0.68-3.34,1.4-5.16,2.16c-0.91,0.38-1.84,0.77-2.79,1.17c-0.96,0.4-1.96,0.71-2.98,1.09c-2.03,0.72-4.15,1.48-6.34,2.26
				c-2.21,0.7-4.52,1.35-6.89,2.06c-2.35,0.76-4.83,1.29-7.34,1.89c-1.26,0.3-2.53,0.6-3.81,0.9c-1.29,0.27-2.61,0.47-3.93,0.71
				c-10.55,1.95-22.01,2.88-33.42,2.43c-11.41-0.43-22.77-2.17-33.11-5c-10.36-2.77-19.73-6.43-27.43-10.2
				c-7.73-3.72-13.81-7.49-17.89-10.26c-4.1-2.78-6.15-4.56-6.01-4.43L245.69,665.41z"/>
		</g>
	</g>
</g>
<g>
	<g>
		<g>
			<path style="fill:#FFFFFF;" d="M890.86,352.6c0.04-0.07-0.32,0.55-1.11,1.78c-0.79,1.23-2.02,3.07-3.72,5.42
				c-3.4,4.7-8.68,11.49-16.17,19.48c-7.49,7.97-17.19,17.17-29.4,26.33c-12.2,9.15-26.92,18.3-44.07,25.98
				c-17.15,7.65-36.72,13.79-58.01,17.27c-21.28,3.52-44.22,4.31-67.76,2.24c-23.55-2.05-47.66-6.96-71.56-14.06
				c-11.97-3.51-23.83-7.73-35.62-12.29c-2.94-1.18-5.91-2.27-8.82-3.51c-2.92-1.23-5.84-2.46-8.77-3.69
				c-2.92-1.25-5.8-2.59-8.7-3.87l-8.78-3.94c-11.77-5.4-23.8-10.36-36.05-14.73c-12.24-4.36-24.76-8.05-37.47-10.63
				c-12.7-2.6-25.56-4.04-38.21-4.47c-12.66-0.45-25.11,0.03-37.23,0.84c-6.03,0.36-12.16,0.93-18.15,1.65
				c-6,0.75-11.91,1.69-17.73,2.8c-11.63,2.29-22.9,5.26-33.58,9.08c-10.67,3.82-20.83,8.27-30.19,13.5
				c-9.37,5.19-18,11.01-25.76,17.26c-7.77,6.24-14.66,12.91-20.67,19.73c-6.02,6.81-11.16,13.75-15.58,20.53
				c-1.08,1.71-2.14,3.39-3.18,5.05c-0.24,0.42-0.48,0.83-0.71,1.23c-0.06,0.11-0.13,0.22-0.18,0.32c-0.12,0.21-0.23,0.4-0.32,0.57
				c-0.39,0.68-0.62,1.08-0.62,1.08l-8.87-5.09c-0.39,11.42,0.35,22.44,1.93,32.99c8.38-6.66,17.06-12.39,25.88-17.03l-8.87-5.09
				c0,0,0.21-0.37,0.58-1.01c0.09-0.16,0.19-0.34,0.3-0.53c0.06-0.1,0.11-0.2,0.17-0.3c0.22-0.38,0.44-0.76,0.66-1.16
				c0.98-1.55,1.97-3.12,2.98-4.72c8.22-12.66,19.27-25.88,33.79-37.53c7.24-5.83,15.3-11.27,24.09-16.14
				c8.77-4.91,18.35-9.1,28.44-12.71c10.1-3.61,20.82-6.44,31.91-8.62c5.56-1.06,11.21-1.96,16.95-2.67
				c5.76-0.68,11.52-1.23,17.5-1.58c11.89-0.8,23.94-1.26,36.04-0.83c12.1,0.42,24.25,1.78,36.31,4.25
				c12.07,2.45,24.05,5.98,35.9,10.2c11.84,4.22,23.58,9.06,35.15,14.36l8.79,3.95c2.96,1.32,5.9,2.68,8.88,3.95
				c2.99,1.26,5.97,2.51,8.96,3.77c2.98,1.27,6.02,2.39,9.02,3.59c12.06,4.67,24.22,8.99,36.52,12.6
				c24.55,7.29,49.43,12.37,73.87,14.5c24.42,2.15,48.36,1.33,70.64-2.35c22.29-3.64,42.86-10.08,60.87-18.12
				c18.02-8.07,33.49-17.68,46.3-27.3c12.83-9.63,23.01-19.28,30.9-27.67c7.88-8.41,13.47-15.58,17.12-20.63
				c1.82-2.53,3.16-4.53,4.05-5.91c0.89-1.38,1.34-2.15,1.38-2.22L890.86,352.6z"/>
		</g>
	</g>
</g>
</svg>
